# xmcd
# Track frame offsets:
# 150
# 14345
# 26117
# 43050
# 54707
# 67332
# 76275
# 92152
# 106265
# 120827
# 133375
# 149340
# 158715
# 168777
# 179875
# 194460
# 206837
# 225702
#
# Disc length: 3217 seconds
# Revision: 0
# Processed by: cddbd v1.4PL0 Copyright (c) Steve Scherf et al.
# Submitted via: VisiTrax 2.9.5.181 - For more info visit www.synapsa.com
#
DISCID=090c8f12
DTITLE=Various Artist - Country Collection Disc 3
DYEAR=1999
DGENRE=Country
TTITLE0=Tom Jones - Green Green Grass of Home
TTITLE1=Glen Campbell - Take These Chains From My Heart
TTITLE2=Patsy Cline - Faded Love
TTITLE3=Frank Ifield - He'll Have To Go
TTITLE4=Loretta Lynn - There Goes My Everything
TTITLE5=Tammy Wynette - Yesterday
TTITLE6=Joe South - Games People Play
TTITLE7=Johnny Cash - Orange Blossom Special
TTITLE8=Dolly Parton - Harper Valley PTA
TTITLE9=Frank Ifield - The Wayward Wind
TTITLE10=Tom Jones - Detroit City
TTITLE11=Frank Ifield - I'm Confessin' (That I Love You)
TTITLE12=Connie Francis - Walk On By
TTITLE13=Marty Robbins - Love Is Blue
TTITLE14=Geln Campbell and Bobbie Gentry - Little Green Apples
TTITLE15=Glen Campbell - By The Time I Get To Phoenix
TTITLE16=Tammy Wynette - Honey (I Miss You Too)
TTITLE17=Kenny Rogers - Unchained Melody
EXTD=Data by Phil Taylor - Island of Jersey
EXTT0=
EXTT1=
EXTT2=
EXTT3=
EXTT4=
EXTT5=Lennon, McCartney
EXTT6=
EXTT7=
EXTT8=
EXTT9=
EXTT10=
EXTT11=
EXTT12=Burt Bacharach and Hal David
EXTT13=
EXTT14=
EXTT15=
EXTT16=
EXTT17=
PLAYORDER=
